<svg xmlns="http://www.w3.org/2000/svg" viewBox="0 0 20 17" fill="none">
<path d="M10.1325 14.1754C10.2079 14.1759 10.2828 14.1618 10.3526 14.1339C10.4224 14.106 10.4858 14.0649 10.5391 14.0129C10.5925 13.9609 10.6346 13.8991 10.6632 13.8311C10.6917 13.7631 10.706 13.6902 10.7054 13.6167V12.8352C12.3984 12.6793 13.5443 11.736 13.5443 10.3059C13.5443 8.9178 12.6777 8.12631 10.652 7.63363V5.14626C11.137 5.26643 11.6001 5.45891 12.0247 5.71688C12.1443 5.79088 12.2824 5.83134 12.4241 5.83381C12.5214 5.8354 12.6181 5.81813 12.7086 5.783C12.799 5.74786 12.8813 5.69557 12.9508 5.62916C13.0203 5.56276 13.0755 5.48357 13.1132 5.39621C13.1509 5.30884 13.1704 5.21504 13.1705 5.12027C13.1697 4.99067 13.132 4.86383 13.0615 4.7539C12.9909 4.64396 12.8904 4.55526 12.7711 4.49768C12.1475 4.10945 11.4409 3.86537 10.7054 3.78415V3.49833C10.7059 3.42495 10.6915 3.3522 10.6629 3.2843C10.6343 3.21641 10.5921 3.15472 10.5388 3.10283C10.4855 3.05095 10.4221 3.00989 10.3523 2.98206C10.2826 2.95422 10.2078 2.94016 10.1325 2.94069C9.97878 2.93909 9.83072 2.99692 9.7208 3.10147C9.61089 3.20602 9.54809 3.34875 9.5462 3.49833V3.77015C7.87983 3.90007 6.74736 4.86044 6.74736 6.24854C6.74736 7.71458 7.65395 8.42812 9.59959 8.9208V11.4761C8.88185 11.3389 8.20666 11.0413 7.62725 10.6067C7.51835 10.5273 7.3889 10.479 7.25339 10.4672C7.11788 10.4553 6.98166 10.4804 6.85997 10.5396C6.73828 10.5988 6.63593 10.6899 6.56436 10.8025C6.49279 10.9151 6.45483 11.0449 6.45474 11.1773C6.45317 11.3027 6.48554 11.4262 6.54863 11.5355C6.61171 11.6448 6.70327 11.736 6.81408 11.7999C7.62066 12.3603 8.56196 12.7089 9.54722 12.8123V13.6117C9.54802 13.6859 9.56383 13.7592 9.59373 13.8274C9.62363 13.8956 9.66704 13.9574 9.72148 14.0092C9.77592 14.0611 9.84032 14.1021 9.91101 14.1297C9.9817 14.1573 10.0573 14.1712 10.1335 14.1704M10.653 9.16264C11.6797 9.47343 11.9723 9.82421 11.9723 10.3948C11.9723 11.0174 11.5062 11.4322 10.653 11.5231V9.16264ZM8.32029 6.1526C8.32029 5.58198 8.74639 5.14026 9.59959 5.06231V7.36082C8.57287 7.03603 8.32029 6.69825 8.32029 6.1526Z" fill="#7E7E9C"/>
<path d="M4.48342 7.63963C4.50922 7.60888 4.52598 7.57191 4.53192 7.53264C4.53787 7.49337 4.53278 7.45326 4.5172 7.41658C4.50162 7.3799 4.47613 7.348 4.44343 7.32428C4.41073 7.30057 4.37204 7.28591 4.33147 7.28186L3.44027 7.18892C3.58403 6.0964 4.00111 5.05492 4.65488 4.1559C5.59573 2.84188 6.96347 1.87422 8.53795 1.40869C10.1644 0.921664 11.9113 0.976524 13.5021 1.56459C14.3087 1.87068 15.0601 2.29977 15.7281 2.83576C16.3995 3.38895 16.9765 4.04231 17.4376 4.7715C17.4568 4.8015 17.4866 4.82359 17.5215 4.83354C17.5563 4.84349 17.5937 4.84062 17.6265 4.82546C17.6436 4.81727 17.6588 4.80588 17.6713 4.79196C17.6839 4.77803 17.6935 4.76183 17.6996 4.74429C17.7057 4.72674 17.7082 4.7082 17.7069 4.68972C17.7056 4.67124 17.7006 4.65319 17.6922 4.63659C17.2822 3.82895 16.743 3.08988 16.0946 2.44701C15.4287 1.80239 14.6613 1.26532 13.8215 0.856051C12.0816 0.0304267 10.1084 -0.206607 8.21453 0.18249C6.50761 0.537284 4.94315 1.36661 3.71096 2.56984C2.47878 3.77308 1.63183 5.29851 1.27286 6.96107L0.251273 6.85314C0.210773 6.84868 0.169788 6.85497 0.132663 6.87134C0.0955372 6.88771 0.0636545 6.91356 0.0403944 6.94614C0.0171343 6.97871 0.00336356 7.01681 0.00054198 7.05639C-0.0022796 7.09596 0.0059531 7.13554 0.0243674 7.17094L1.72359 10.4588C1.74048 10.4917 1.76561 10.52 1.79666 10.5411C1.82771 10.5621 1.86369 10.5752 1.9013 10.5792C1.93891 10.5832 1.97694 10.5779 2.01191 10.5638C2.04687 10.5498 2.07766 10.5274 2.10143 10.4988L4.48342 7.63963Z" fill="#7E7E9C"/>
<path d="M18.2733 6.52836C18.2564 6.49541 18.2313 6.46713 18.2003 6.44609C18.1692 6.42505 18.1332 6.41193 18.0956 6.40795C18.058 6.40397 18.02 6.40926 17.985 6.42331C17.95 6.43736 17.9193 6.45974 17.8955 6.48839L15.5125 9.34853C15.4867 9.37927 15.4699 9.41624 15.464 9.45551C15.458 9.49478 15.4631 9.53489 15.4787 9.57157C15.4943 9.60825 15.5198 9.64015 15.5525 9.66387C15.5852 9.68759 15.6239 9.70225 15.6644 9.70629L16.5556 9.80023C16.4093 10.9032 15.9861 11.9542 15.3236 12.8602C14.368 14.1785 12.9825 15.1435 11.3922 15.5984C9.74851 16.0712 7.9894 15.9938 6.39621 15.3786C5.58768 15.0606 4.83763 14.6167 4.1754 14.0644C3.50826 13.4966 2.93906 12.8282 2.48953 12.0847C2.4712 12.0543 2.44198 12.0316 2.40749 12.0209C2.373 12.0102 2.33567 12.0123 2.30266 12.0268C2.28537 12.0346 2.26984 12.0457 2.25696 12.0594C2.24409 12.0731 2.23412 12.0891 2.22763 12.1066C2.22114 12.124 2.21826 12.1426 2.21916 12.1611C2.22005 12.1797 2.22471 12.1979 2.23285 12.2147C3.0484 13.9073 4.4261 15.2831 6.14361 16.1201C7.86113 16.957 9.81829 17.2063 11.6992 16.8276C13.4246 16.4866 15.0097 15.6614 16.2589 14.4538C17.5082 13.2462 18.3669 11.7091 18.7292 10.0321L19.7487 10.139C19.7892 10.1435 19.8302 10.1372 19.8673 10.1208C19.9045 10.1044 19.9363 10.0786 19.9596 10.046C19.9829 10.0134 19.9966 9.97534 19.9995 9.93576C20.0023 9.89618 19.994 9.8566 19.9756 9.82121L18.2733 6.52836Z" fill="#7E7E9C"/>
</svg>