<svg xmlns="http://www.w3.org/2000/svg" viewBox="0 0 69 17" fill="none">
<g clip-path="url(#clip0_1_1914)">
<path d="M18.1296 6.02539H25.1149V7.33243H22.3683V14.6845H20.8593V7.33243H18.1238V6.02539H18.1296ZM24.8166 8.41466H26.1075V9.62432H26.1316C26.178 9.44548 26.2588 9.27744 26.3693 9.12961C26.4884 8.96419 26.6297 8.81617 26.7894 8.68979C26.9557 8.55517 27.1404 8.44514 27.3378 8.36303C27.5333 8.28387 27.7419 8.24241 27.9526 8.24082C28.1109 8.24082 28.2268 8.24671 28.2874 8.25324C28.348 8.25978 28.4092 8.27154 28.4763 8.27742V9.60929C28.3786 9.59099 28.2809 9.57857 28.178 9.56681C28.079 9.55482 27.9794 9.54871 27.8797 9.54851C27.653 9.54848 27.4289 9.59635 27.2219 9.68902C27.0149 9.78333 26.8317 9.92315 26.6858 10.0981C26.5236 10.2976 26.3997 10.5257 26.3205 10.7706C26.2255 11.0687 26.1802 11.3805 26.1863 11.6934V14.6754H24.8101V8.41204L24.8166 8.41466ZM34.8044 14.6845H33.4523V13.8108H33.4295C33.2562 14.1312 32.994 14.3943 32.6746 14.5682C32.3643 14.7517 32.0116 14.8506 31.6514 14.8551C31.3278 14.8861 31.0012 14.8477 30.6936 14.7423C30.3859 14.637 30.1041 14.4671 29.8668 14.2441C29.463 13.7157 29.2677 13.0565 29.3184 12.3926V8.41466H30.694V12.258C30.6522 12.6729 30.765 13.0887 31.0105 13.4252C31.1249 13.5421 31.2629 13.6331 31.4152 13.6921C31.5676 13.7512 31.7307 13.7769 31.8937 13.7676C32.1422 13.7767 32.3897 13.7308 32.6186 13.633C32.802 13.553 32.963 13.4292 33.0875 13.2723C33.2124 13.1142 33.3013 12.9306 33.3481 12.7344C33.4036 12.5127 33.4303 12.2847 33.4275 12.0561V8.41989H34.8037L34.8044 14.6845ZM37.1491 12.6743C37.153 12.8419 37.1963 13.0063 37.2755 13.1539C37.3548 13.3016 37.4676 13.4283 37.605 13.5239C37.8956 13.691 38.2262 13.7755 38.5611 13.7683C38.7077 13.7659 38.854 13.7557 38.9994 13.7376C39.1582 13.7191 39.3138 13.68 39.4625 13.6212C39.6013 13.5691 39.7248 13.4831 39.822 13.3709C39.9181 13.2501 39.9647 13.097 39.9523 12.9429C39.9517 12.8609 39.934 12.7799 39.9003 12.7052C39.8667 12.6305 39.8178 12.5636 39.7569 12.509C39.6222 12.3875 39.4648 12.294 39.2938 12.2338C39.0832 12.1593 38.8675 12.1001 38.6484 12.0567C38.4048 12.0077 38.1612 11.9528 37.9117 11.8979C37.6604 11.8424 37.4123 11.773 37.1686 11.6901C36.9395 11.6159 36.7236 11.5056 36.529 11.3633C36.339 11.228 36.1844 11.0487 36.0783 10.8405C35.956 10.5941 35.8974 10.3209 35.9077 10.0458C35.898 9.74132 35.9854 9.44165 36.1571 9.19039C36.3222 8.96038 36.5365 8.77035 36.7843 8.63424C37.0494 8.49108 37.3351 8.39011 37.631 8.33493C37.9244 8.28063 38.2218 8.25198 38.5201 8.24932C38.8315 8.24897 39.1419 8.28383 39.4456 8.35323C39.7297 8.41547 40.0001 8.52931 40.2434 8.68914C40.4809 8.84384 40.6823 9.048 40.8342 9.28776C41 9.55842 41.1021 9.86354 41.1325 10.1798H39.695C39.6797 10.0403 39.6307 9.90675 39.5521 9.79067C39.4736 9.67459 39.3679 9.57957 39.2443 9.51388C38.9889 9.3951 38.7097 9.33653 38.4282 9.34266C38.3121 9.34282 38.1961 9.35089 38.0811 9.36683C37.9524 9.3843 37.8258 9.41495 37.7033 9.45833C37.5907 9.50089 37.4889 9.56783 37.405 9.65438C37.3222 9.74603 37.2784 9.86664 37.2832 9.99029C37.2808 10.0673 37.2953 10.1439 37.3259 10.2147C37.3564 10.2854 37.4021 10.3485 37.4597 10.3994C37.5949 10.5132 37.7494 10.6017 37.9157 10.6608C38.1263 10.7353 38.342 10.7945 38.5611 10.8379C38.8047 10.8869 39.0541 10.9418 39.3101 10.9967C39.5661 11.0516 39.8032 11.1274 40.0467 11.2045C40.2782 11.2774 40.4962 11.3878 40.6922 11.5313C40.8795 11.6696 41.035 11.8468 41.1481 12.0508C41.2718 12.2903 41.3326 12.5576 41.3246 12.8272C41.3346 13.1613 41.2455 13.4909 41.0686 13.7742C40.8997 14.0313 40.6748 14.2465 40.4108 14.4035C40.1307 14.5683 39.8265 14.6879 39.5094 14.7577C39.1876 14.8301 38.8589 14.8669 38.5292 14.8675C38.1595 14.8717 37.7908 14.8264 37.433 14.7329C37.1209 14.6523 36.8259 14.5157 36.5622 14.3297C36.321 14.1502 36.1233 13.9183 35.9839 13.6513C35.8374 13.3506 35.7604 13.0207 35.7585 12.6861H37.1471L37.1491 12.6743ZM41.6926 8.41531H42.7347V6.53318H44.1109V8.41531H45.3536V9.44787H44.1109V12.7965C44.11 12.9231 44.1161 13.0496 44.1291 13.1755C44.139 13.27 44.1681 13.3614 44.2144 13.4441C44.2608 13.5205 44.3319 13.5786 44.4157 13.6088C44.5329 13.6502 44.6569 13.6688 44.7811 13.6637C44.8788 13.6637 44.9765 13.6637 45.0735 13.6578C45.1721 13.6527 45.27 13.6385 45.3659 13.6154V14.6845C45.2135 14.7028 45.0618 14.7152 44.9211 14.7335C44.7735 14.7509 44.6249 14.759 44.4763 14.7577C44.1806 14.7655 43.8853 14.7305 43.5996 14.6538C43.4028 14.6003 43.224 14.4946 43.0818 14.348C42.953 14.2071 42.8646 14.0339 42.8259 13.8467C42.7782 13.6194 42.7516 13.3882 42.7464 13.1559V9.45898H41.7043V8.41335L41.6926 8.41531ZM46.3273 8.41531H47.6299V9.26489H47.654C47.8275 8.91876 48.1132 8.64219 48.4642 8.48067C48.818 8.31987 49.2026 8.23847 49.591 8.24213C50.0335 8.23027 50.473 8.31967 50.876 8.50354C51.2313 8.66738 51.5435 8.9122 51.7878 9.21849C52.0348 9.53471 52.2188 9.89571 52.3297 10.2818C52.4539 10.7021 52.5156 11.1386 52.5127 11.577C52.5141 11.99 52.4589 12.4012 52.3486 12.7991C52.248 13.1761 52.0811 13.532 51.8556 13.85C51.6354 14.1544 51.3478 14.4034 51.0154 14.5773C50.6447 14.7682 50.2322 14.8628 49.8157 14.8525C49.6134 14.8524 49.4115 14.834 49.2126 14.7976C49.0137 14.7609 48.8196 14.7014 48.6342 14.6205C48.4498 14.5417 48.2776 14.4367 48.1229 14.3088C47.9692 14.1834 47.8356 14.0351 47.7269 13.8689H47.7028V16.9973H46.3253L46.3273 8.41531ZM51.1385 11.5561C51.1388 11.2775 51.1021 11.0002 51.0291 10.7314C50.9631 10.4776 50.8528 10.2375 50.7034 10.0223C50.5614 9.81933 50.3763 9.65039 50.1615 9.5276C49.8227 9.3508 49.4338 9.29563 49.0594 9.37124C48.685 9.44684 48.3477 9.64869 48.1034 9.94324C47.7898 10.4205 47.6362 10.9858 47.6651 11.5568C47.6614 11.8541 47.7005 12.1503 47.781 12.4364C47.8492 12.6896 47.9672 12.9264 48.1281 13.1331C48.2754 13.324 48.4626 13.4802 48.6765 13.5905C48.9175 13.7072 49.1823 13.7658 49.4499 13.7616C49.7174 13.7574 49.9803 13.6906 50.2175 13.5664C50.4307 13.4407 50.6137 13.2696 50.7536 13.0651C50.8974 12.8518 51.0005 12.6136 51.0577 12.3626C51.1121 12.097 51.1389 11.8266 51.1378 11.5555L51.1385 11.5561ZM53.5678 6.02539H54.944V7.33243H53.5678V6.02539ZM53.5678 8.41466H54.944V14.6845H53.5678V8.41466ZM56.1731 6.02539H57.5493V14.6845H56.1731V6.02539ZM61.7697 14.8557C61.3129 14.863 60.8592 14.7779 60.4359 14.6054C60.0585 14.4521 59.719 14.218 59.4413 13.9193C59.1635 13.6206 58.9541 13.2646 58.8278 12.8762C58.6828 12.4474 58.6108 11.9972 58.6148 11.5444C58.6112 11.0954 58.6832 10.6491 58.8278 10.2243C58.9591 9.83707 59.1684 9.48114 59.4426 9.17862C59.7202 8.88112 60.0589 8.64766 60.4352 8.49439C61.2941 8.15959 62.2467 8.15959 63.1056 8.49439C63.483 8.64769 63.8224 8.88188 64.1002 9.18057C64.3779 9.47926 64.5873 9.83524 64.7136 10.2236C64.8582 10.6485 64.9302 11.0948 64.9266 11.5437C64.9306 11.9965 64.8586 12.4468 64.7136 12.8756C64.5824 13.2628 64.3731 13.6187 64.0988 13.9212C63.8212 14.2187 63.4826 14.4522 63.1062 14.6054C62.6824 14.778 62.2283 14.8631 61.771 14.8557H61.7697ZM61.7697 13.7618C62.0482 13.7674 62.3232 13.6998 62.5676 13.5657C62.7877 13.4402 62.9771 13.267 63.1218 13.0586C63.2703 12.8428 63.3805 12.6029 63.4475 12.3495C63.5855 11.8228 63.5855 11.2692 63.4475 10.7425C63.3843 10.4877 63.2738 10.2472 63.1218 10.0334C62.9769 9.82676 62.7875 9.65545 62.5676 9.53218C62.3211 9.40369 62.0475 9.33661 61.7697 9.33661C61.492 9.33661 61.2183 9.40369 60.9719 9.53218C60.7533 9.65731 60.5643 9.82828 60.4176 10.0334C60.2681 10.2486 60.1578 10.4887 60.092 10.7425C59.954 11.2692 59.954 11.8228 60.092 12.3495C60.1564 12.6038 60.2668 12.8442 60.4176 13.0586C60.5624 13.267 60.7518 13.4402 60.9719 13.5657C61.2152 13.7026 61.491 13.7703 61.7697 13.7618ZM65.3265 8.41466H66.3686V6.53252H67.7448V8.41466H68.9908V9.44722H67.7487V12.7959C67.7478 12.9224 67.7539 13.049 67.767 13.1749C67.7769 13.2693 67.8059 13.3607 67.8523 13.4435C67.8987 13.5198 67.9697 13.5779 68.0535 13.6082C68.1708 13.6495 68.2948 13.6681 68.4189 13.6631C68.5166 13.6631 68.6143 13.6631 68.7114 13.6572C68.8099 13.652 68.9078 13.6378 69.0038 13.6147V14.6839C68.8514 14.7022 68.6996 14.7146 68.5589 14.7329C68.4113 14.7503 68.2627 14.7583 68.1141 14.7571C67.8166 14.7649 67.5196 14.7295 67.2322 14.6518C67.0354 14.5983 66.8566 14.4927 66.7144 14.346C66.5857 14.2051 66.4972 14.0319 66.4585 13.8448C66.4109 13.6174 66.3843 13.3862 66.379 13.154V9.45702H65.3369V8.41139L65.3265 8.41466Z" fill="white"/>
<path d="M16.5223 6.02545H10.2131L8.26442 0L6.3105 6.02545L0 6.01891L5.1095 9.74397L3.15558 15.7629L8.26507 12.0417L13.3687 15.7629L11.42 9.74397L16.5223 6.02545Z" fill="#00B67A"/>
<path d="M11.8579 11.1097L11.4196 9.74707L8.26465 12.0448L11.8579 11.1097Z" fill="#005128"/>
</g>
<defs>
<clipPath id="clip0_1_1914">
<rect width="69" height="17" fill="white"/>
</clipPath>
</defs>
</svg>