<svg xmlns="http://www.w3.org/2000/svg" viewBox="0 0 14 11" fill="none">
<path d="M1.06065 7.25305C0.77935 6.97174 0.621476 6.59021 0.621475 6.19239C0.621475 5.79456 0.779351 5.41303 1.06065 5.13173C1.34196 4.85042 1.72349 4.69255 2.12132 4.69255C2.51914 4.69255 2.90067 4.85042 3.18198 5.13173L5.3033 7.25305L11.3137 1.24264C11.595 0.961336 11.9765 0.803461 12.3744 0.803461C12.7722 0.803461 13.1537 0.961336 13.435 1.24264C13.7163 1.52395 13.8742 1.90548 13.8742 2.3033C13.8742 2.70113 13.7163 3.08266 13.435 3.36396L6.45511 10.3439C6.42777 10.3769 6.39874 10.4085 6.3681 10.4392C6.08679 10.7205 5.70526 10.8784 5.30744 10.8784C4.90961 10.8784 4.52808 10.7205 4.24678 10.4392L1.06065 7.25305Z" fill="#0ADBA8"/>
</svg>